<svg version="1.1" id="Layer_1" xmlns="http://www.w3.org/2000/svg" xmlns:xlink="http://www.w3.org/1999/xlink" x="0px" y="0px"
	 width="100%" viewBox="0 0 1024 1024" enable-background="new 0 0 1024 1024" xml:space="preserve">
<path fill="#000000" opacity="1.000000" stroke="none" 
	d="
M152.601257,508.343292 
	C136.747009,489.457214 136.841034,456.823212 152.690109,438.580597 
	C168.404831,420.492523 188.348709,416.786255 210.653046,422.262268 
	C224.732895,425.719055 235.850800,433.534119 242.459213,446.725677 
	C252.180817,466.131714 251.176651,493.647705 234.976746,510.655396 
	C221.619415,524.678772 204.846939,529.041321 186.224594,526.783630 
	C172.875778,525.165283 161.557831,519.095825 152.601257,508.343292 
M218.899063,483.180450 
	C220.003677,480.487396 219.651489,477.599213 220.040970,474.812103 
	C222.123184,459.911407 209.344543,446.486023 195.160080,446.906281 
	C184.066086,447.235016 174.962585,452.268585 171.334122,461.710632 
	C166.821686,473.452942 169.676132,486.979614 177.291748,494.135681 
	C187.460114,503.690460 212.510315,502.982819 218.899063,483.180450 
z"/>
<path fill="#000000" opacity="1.000000" stroke="none" 
	d="
M533.349365,460.906830 
	C533.489258,469.993561 530.261902,477.364868 524.428101,483.436829 
	C520.661987,487.356720 520.252014,491.084045 523.058716,495.511169 
	C527.425049,502.398315 531.746460,509.314148 536.059204,516.235046 
	C537.372559,518.342651 539.159546,520.519592 537.900452,523.134644 
	C536.560974,525.916748 533.650635,525.323059 531.234497,525.367249 
	C526.239624,525.458740 521.237671,525.242676 516.245422,525.386597 
	C511.222717,525.531433 507.564819,523.438477 505.094391,519.193542 
	C502.332611,514.447876 499.600220,509.682251 496.990387,504.852203 
	C495.550537,502.187561 493.883453,499.699432 491.739441,497.604797 
	C488.620667,494.557831 484.711792,494.616119 480.999420,495.930634 
	C477.589081,497.138275 478.242981,500.454163 478.248474,503.256042 
	C478.257904,508.084198 478.310455,512.912537 478.284760,517.740417 
	C478.254913,523.341614 476.501190,525.154236 470.793335,525.362671 
	C466.966888,525.502380 463.133667,525.444946 459.304169,525.513672 
	C453.186768,525.623413 451.129639,523.968384 450.942657,517.680847 
	C450.645630,507.694855 450.671234,497.697693 450.660553,487.705170 
	C450.640808,469.216339 450.769592,450.727142 450.689056,432.238739 
	C450.636261,420.119904 453.577637,421.379364 462.027405,421.211700 
	C472.279175,421.008148 482.575409,420.792786 492.829010,421.120972 
	C505.944122,421.540771 518.357666,424.234711 526.709717,435.893890 
	C531.977600,443.247742 533.905212,451.502045 533.349365,460.906830 
M484.006439,446.029846 
	C479.641693,446.336395 477.907990,448.804443 478.088318,453.021606 
	C478.251984,456.847504 478.253174,460.680420 478.321686,464.510284 
	C478.381470,467.848999 480.012146,469.620148 483.364990,470.216461 
	C487.559570,470.962585 491.646484,470.419342 495.784637,469.915649 
	C502.710114,469.072632 505.844971,465.347900 505.881073,457.696625 
	C505.913452,450.836121 502.734161,447.119690 495.877167,446.418335 
	C492.240814,446.046417 488.559631,446.112488 484.006439,446.029846 
z"/>
<path fill="#000000" opacity="1.000000" stroke="none" 
	d="
M790.389038,502.875031 
	C785.349609,515.822510 775.940613,522.508545 762.953674,525.497070 
	C748.783569,528.757751 735.508972,527.234497 722.932129,520.193787 
	C714.984009,515.744324 709.828186,508.998657 708.454041,499.782257 
	C707.726624,494.902924 709.317993,493.012238 714.132935,492.513123 
	C717.608093,492.152954 721.063843,491.791718 724.582458,492.070587 
	C729.172913,492.434418 732.974915,493.563873 736.361023,497.348053 
	C742.134766,503.800415 754.181274,504.380066 761.284546,499.364380 
	C765.819397,496.162292 765.411438,490.661560 760.333679,488.263458 
	C754.442444,485.481201 747.950989,486.162567 741.718506,485.357727 
	C728.826050,483.692810 717.051697,479.865814 711.338135,466.826172 
	C705.185974,452.785400 708.378418,430.202545 732.233643,422.623596 
	C747.823120,417.670746 762.701660,418.831818 776.382568,428.679260 
	C782.821777,433.314178 786.504272,439.591827 788.014221,447.195953 
	C788.810730,451.207397 786.728516,453.827423 782.788574,454.135162 
	C778.324829,454.483826 773.792236,454.355621 769.317932,454.036835 
	C765.720337,453.780518 762.887207,451.860535 760.387939,449.126984 
	C755.714783,444.015656 745.658081,442.863464 739.722351,446.426575 
	C736.725647,448.225494 735.465881,450.950470 735.389587,454.360077 
	C735.312073,457.822662 737.717163,459.285614 740.317139,460.579926 
	C744.419189,462.621948 748.900146,463.100464 753.358093,463.687805 
	C761.283447,464.731934 769.195496,465.944733 776.558716,469.241699 
	C786.364563,473.632355 791.177124,481.413971 791.293640,492.077118 
	C791.331604,495.548340 791.778809,499.087646 790.389038,502.875031 
z"/>
<path fill="#000000" opacity="1.000000" stroke="none" 
	d="
M62.713600,492.126404 
	C68.452995,492.117676 72.583084,494.125153 76.018105,498.352692 
	C80.878021,504.333893 95.269257,502.745300 99.931030,499.633423 
	C104.170204,496.803711 103.865860,491.186218 99.426346,488.573334 
	C94.639992,485.756317 89.186058,485.906158 83.936958,485.376678 
	C76.286659,484.605011 69.039612,483.139343 61.924660,479.704987 
	C43.060352,470.599213 44.198521,439.901428 58.764393,429.018524 
	C74.902229,416.961090 101.725685,416.779633 116.813171,429.995422 
	C122.091499,434.618958 125.669426,440.333557 126.455032,447.452423 
	C126.924728,451.708618 124.845840,454.070618 120.552765,454.219666 
	C116.230453,454.369720 111.898453,454.214844 107.571823,454.275024 
	C104.344322,454.319885 102.468781,452.257660 100.550453,450.116180 
	C95.271881,444.223480 88.568802,443.206573 81.383011,445.202148 
	C77.384018,446.312653 74.408195,448.736389 74.210152,453.647125 
	C74.018135,458.408203 77.141281,459.926910 80.597603,461.420593 
	C86.704147,464.059631 93.339996,463.527252 99.716759,464.512390 
	C104.701767,465.282532 109.511856,466.571472 114.104424,468.455292 
	C123.909027,472.477112 129.454025,479.975677 130.221924,490.557007 
	C131.043839,501.882477 127.859756,511.602478 117.874168,518.251404 
	C101.755180,528.984314 84.485237,530.358948 67.000061,523.026672 
	C57.014793,518.839417 48.771538,511.865936 47.321106,499.796234 
	C46.789433,495.371948 48.441101,493.153351 52.837078,492.729431 
	C55.978695,492.426483 59.135246,492.278351 62.713600,492.126404 
z"/>
<path fill="#000000" opacity="1.000000" stroke="none" 
	d="
M926.386108,421.097992 
	C940.566101,418.115601 953.208130,420.579803 964.646301,428.890533 
	C970.885498,433.423767 974.503906,439.611115 976.009521,447.050537 
	C976.822449,451.066833 974.813049,453.773071 970.903381,454.101349 
	C966.281006,454.489563 961.576111,454.288116 956.936340,453.945801 
	C953.506714,453.692749 950.863708,451.722046 948.481201,449.149323 
	C943.662354,443.945679 933.913269,442.788849 927.800781,446.372833 
	C924.775146,448.146851 923.517151,450.886871 923.389893,454.275543 
	C923.260559,457.722076 925.602661,459.281647 928.239319,460.549500 
	C932.351501,462.526794 936.789368,463.165253 941.271057,463.724976 
	C949.536316,464.757263 957.791260,465.999512 965.405640,469.629211 
	C974.352966,473.894287 979.050232,481.227264 979.269470,491.015137 
	C979.691162,509.852448 969.320984,521.455017 950.326050,525.596924 
	C936.247620,528.666748 923.166504,527.045227 910.800659,520.061340 
	C903.067383,515.693848 897.891113,509.055023 896.647339,499.994873 
	C895.904175,494.581238 897.319031,493.084961 902.614380,492.575043 
	C905.759033,492.272247 908.869995,491.850861 912.067505,492.085938 
	C917.005493,492.449066 921.070496,493.625061 924.738220,497.688995 
	C930.343201,503.899536 942.409180,504.260284 949.337524,499.495148 
	C951.459839,498.035553 952.564331,496.014771 952.429626,493.585144 
	C952.280457,490.895203 950.732666,489.034454 948.107056,488.012939 
	C942.070312,485.664185 935.662354,486.083099 929.411865,485.328552 
	C912.937683,483.339874 900.840088,476.070831 897.671387,461.764923 
	C893.227539,441.702240 904.544922,425.515900 926.386108,421.097992 
z"/>
<path fill="#000000" opacity="1.000000" stroke="none" 
	d="
M389.058533,512.485291 
	C383.518707,512.596375 378.375427,513.033386 373.280060,512.711731 
	C368.835693,512.431091 365.677185,513.967041 363.968201,517.832947 
	C361.225342,524.037903 356.928101,526.641418 350.096619,525.469788 
	C347.022736,524.942566 343.784363,525.428528 340.623810,525.340088 
	C335.147522,525.186890 333.578827,523.321960 335.513550,518.073120 
	C337.975586,511.393463 341.007751,504.915497 343.965729,498.428833 
	C351.898041,481.033905 359.894135,463.667938 367.922668,446.317169 
	C371.203339,439.227203 374.552124,432.165955 378.028809,425.170624 
	C379.757019,421.693420 383.066315,420.249542 386.712585,420.306335 
	C390.427704,420.364197 393.325958,422.190613 394.935791,425.806396 
	C399.059662,435.068878 403.189789,444.329926 407.450684,453.529816 
	C416.874573,473.877380 426.394104,494.180664 435.826721,514.524170 
	C436.586914,516.163757 437.066376,517.951294 437.523590,519.709717 
	C438.412964,523.130310 437.275665,524.913879 433.523529,525.519897 
	C427.829163,526.439819 422.230896,525.656067 416.616852,525.237854 
	C412.949768,524.964661 410.589294,522.346985 409.220825,519.205505 
	C406.998718,514.104431 402.909088,512.601624 397.919769,512.883545 
	C395.062500,513.045044 392.278992,512.852661 389.058533,512.485291 
M393.584747,486.664124 
	C394.177124,479.636292 389.451019,474.679962 387.336609,468.671631 
	C383.827332,469.782898 383.295380,472.476227 382.468262,474.687103 
	C381.004852,478.598969 376.294128,483.092529 379.282562,486.416901 
	C382.361786,489.842224 388.285461,488.074646 393.584747,486.664124 
z"/>
<path fill="#000000" opacity="1.000000" stroke="none" 
	d="
M837.465210,444.663788 
	C838.959900,448.181793 840.044495,451.537964 843.232300,453.714905 
	C846.330872,451.982635 847.359619,448.891724 848.836304,446.196625 
	C852.109192,440.223419 855.273010,434.190399 858.474670,428.178192 
	C861.069702,423.305298 864.786560,420.921539 870.622925,421.439636 
	C875.541809,421.876251 880.546753,421.285187 885.514343,421.248535 
	C890.484863,421.211884 892.432129,424.017273 889.929443,428.260498 
	C882.581909,440.718353 875.206787,453.174622 867.350464,465.313049 
	C861.315063,474.637970 855.825073,483.734650 857.094055,495.638062 
	C857.865112,502.870270 857.083496,510.261749 857.117126,517.581116 
	C857.138245,522.177795 855.067017,524.960083 850.454407,525.235901 
	C845.815308,525.513367 841.143677,525.545349 836.499939,525.353943 
	C832.659424,525.195618 830.710022,523.103027 830.313354,519.007507 
	C829.347778,509.038239 829.908203,499.063416 829.749084,489.094299 
	C829.661804,483.627014 828.338806,478.738708 825.325256,474.053314 
	C816.414734,460.199860 807.782043,446.167328 799.084351,432.177704 
	C798.124329,430.633636 797.218506,428.984344 796.687927,427.260590 
	C795.734924,424.164032 796.671509,421.896454 800.263489,421.697968 
	C805.908264,421.385986 811.573547,420.911713 817.208313,421.113800 
	C822.062805,421.287872 826.024414,423.415100 828.402283,428.168274 
	C831.151672,433.664154 834.341675,438.939636 837.465210,444.663788 
z"/>
<path fill="#000000" opacity="1.000000" stroke="none" 
	d="
M637.448120,463.326721 
	C636.406250,464.600769 635.125183,465.272858 634.732971,467.499207 
	C675.821960,500.634857 717.208862,534.010742 759.117676,567.807556 
	C754.944397,569.900452 751.383484,568.620483 748.059143,569.182434 
	C736.316223,571.167786 727.865540,566.264282 719.389099,558.281006 
	C692.707214,533.151672 665.266541,508.827911 638.110474,484.202362 
	C636.398621,482.649994 634.609314,481.183075 632.666260,479.513336 
	C626.511902,483.464447 621.959290,488.853363 616.724854,493.406830 
	C605.793457,502.916107 595.065491,512.666504 584.466370,522.545715 
	C581.569336,525.246033 578.696472,526.638000 574.718018,526.416260 
	C569.822388,526.143433 564.899963,526.351074 559.888306,526.351074 
	C560.023682,523.043274 562.154236,522.269653 563.589172,521.092285 
	C570.543884,515.385620 577.529358,509.711090 584.656128,504.222870 
	C587.022766,502.400360 588.034180,500.368530 587.948303,497.439636 
	C587.816467,492.944550 588.053894,488.438721 587.926025,483.943390 
	C587.769043,478.426361 591.595337,479.101532 595.113892,478.985046 
	C598.934021,478.858643 600.174927,480.631500 599.597168,484.247528 
	C599.254639,486.391113 599.400940,488.559296 600.810364,491.100739 
	C610.674622,483.149445 620.409302,475.302612 630.955017,466.802032 
	C623.108459,463.390320 616.271729,460.458008 609.469482,457.447754 
	C603.645386,454.870300 603.513916,453.802185 608.173035,449.727112 
	C612.436707,445.997986 616.669006,442.231049 620.842285,438.401489 
	C622.812195,436.593842 624.823059,435.477631 627.593933,436.432159 
	C634.361450,438.763428 641.135925,441.077576 647.943481,443.288269 
	C651.955444,444.591125 651.972107,446.566437 649.420410,449.444946 
	C645.442871,453.931824 641.586304,458.525970 637.448120,463.326721 
z"/>
<path fill="#000000" opacity="1.000000" stroke="none" 
	d="
M303.095184,500.817566 
	C309.745636,500.838226 315.909882,500.829529 322.073639,500.879639 
	C326.827881,500.918304 329.070953,503.036926 329.246796,507.838470 
	C329.374756,511.331635 329.182709,514.835327 329.243378,518.332458 
	C329.324127,522.986206 326.650146,525.159790 322.457581,525.242004 
	C306.139618,525.562012 289.816010,525.876709 273.497467,525.763855 
	C265.675049,525.709778 264.189728,522.950134 264.425262,515.040771 
	C264.662231,507.082855 264.675842,499.103394 264.202698,491.099335 
	C263.600861,480.919464 264.319794,470.665375 264.355743,460.442871 
	C264.391785,450.197266 264.880585,439.947418 263.972931,429.706879 
	C263.593628,425.427002 265.707184,422.593231 269.921997,421.823212 
	C274.680695,420.953888 279.528839,420.750854 284.363800,421.136078 
	C288.563324,421.470673 291.333008,423.624390 291.479614,428.014526 
	C291.840027,438.808044 292.126709,449.606995 292.219971,460.405670 
	C292.314636,471.368774 291.413818,482.319855 292.169220,493.303711 
	C292.643890,500.206268 292.777557,500.695648 299.609924,500.791321 
	C300.609436,500.805328 301.609161,500.806458 303.095184,500.817566 
z"/>
<path fill="#000000" opacity="1.000000" stroke="none" 
	d="
M641.599609,364.861206 
	C642.462402,363.900818 642.908997,362.871735 644.537659,363.036957 
	C644.722412,366.152649 642.606201,368.449402 641.591064,371.084656 
	C640.754578,373.255798 639.627502,375.327850 638.937744,377.540039 
	C637.354065,382.619324 639.454041,385.103882 644.848267,384.764862 
	C645.640808,384.715057 646.434631,384.687195 647.109619,384.654846 
	C647.673950,385.836395 647.062805,386.467743 646.708679,387.203979 
	C644.302917,392.205658 646.756348,395.764221 652.345276,395.229187 
	C656.649109,394.817230 660.926331,394.133911 665.222778,393.634705 
	C666.122742,393.530151 667.200500,392.966949 668.475891,395.079315 
	C640.895569,405.833038 611.541504,407.313965 582.527832,414.991821 
	C583.806152,411.320435 586.287415,409.964783 586.062012,407.128998 
	C585.820190,404.086426 583.385803,403.153259 581.716919,401.580139 
	C581.782104,400.381226 582.603821,400.208008 583.384888,399.916077 
	C588.729309,397.918457 589.554443,393.920959 585.253723,390.280640 
	C582.333496,387.808899 579.174622,385.621246 576.175903,383.239288 
	C574.954468,382.269073 573.122559,381.752350 573.093933,378.818237 
	C576.697327,380.341400 579.967712,381.715118 583.230591,383.106354 
	C585.064880,383.888458 586.844971,384.821960 588.725159,385.466339 
	C591.008240,386.248779 593.333557,386.451874 595.226074,384.467468 
	C597.214172,382.382812 596.506958,380.213684 595.374268,378.026337 
	C595.081787,377.461548 594.948181,376.814453 594.743958,376.212158 
	C596.329041,375.036804 597.003540,376.426361 597.760864,377.085724 
	C599.551392,378.644562 601.472046,379.460052 603.674500,378.200165 
	C606.134033,376.793152 606.821716,374.550446 606.410583,371.789307 
	C605.799133,367.681915 605.299744,363.556427 604.839172,359.428986 
	C604.720398,358.364838 604.292786,357.121918 605.934082,355.978394 
	C608.800476,360.533630 609.721191,365.836182 611.987244,370.526093 
	C614.099609,374.897888 617.285828,376.051941 620.164734,373.427429 
	C621.343323,372.353119 622.206360,370.932709 623.205505,369.679016 
	C624.743469,370.683563 624.487610,372.211548 625.064270,373.355865 
	C626.957886,377.113342 630.701843,377.915009 633.546509,374.829376 
	C636.361511,371.775787 638.805969,368.380554 641.599609,364.861206 
z"/>
<path fill="#000000" opacity="1.000000" stroke="none" 
	d="
M651.183838,411.164001 
	C656.520081,403.540833 663.622437,405.168396 670.785278,406.687439 
	C668.034119,404.822327 664.478027,405.604248 661.041870,402.907043 
	C672.169922,400.000824 682.706360,398.142120 693.501770,396.345795 
	C692.373657,403.470612 686.469116,407.497284 677.992371,407.507263 
	C679.174194,409.064636 681.655701,408.118103 682.655640,409.964844 
	C679.760437,419.055847 672.239929,423.561066 663.470764,421.527557 
	C659.433105,420.591187 655.347168,419.859314 651.320251,418.881653 
	C649.622314,418.469421 647.584961,418.516022 646.575806,416.458954 
	C646.793457,413.763397 649.441711,413.073090 651.183838,411.164001 
z"/>
<path fill="#000000" opacity="1.000000" stroke="none" 
	d="
M629.019165,434.242981 
	C627.888428,433.071594 628.161316,432.099335 628.939453,431.374786 
	C633.082642,427.516998 637.253052,423.687408 641.470520,419.911224 
	C642.814270,418.708069 644.455139,418.691833 646.187378,419.098938 
	C652.507141,420.584351 658.865662,421.909851 665.167358,423.466614 
	C669.984985,424.656769 670.291931,425.958679 666.966980,429.785645 
	C666.857727,429.911346 666.715637,430.016174 666.633667,430.156830 
	C659.982910,441.568024 650.805969,443.774231 639.175537,437.962341 
	C636.078918,436.414917 632.614258,435.603790 629.019165,434.242981 
z"/>
<path fill="#000000" opacity="1.000000" stroke="none" 
	d="
M603.067261,450.386536 
	C601.414551,451.642792 599.900879,452.728973 598.212219,452.154297 
	C591.206848,449.770233 584.473206,446.764160 577.369568,443.103271 
	C581.110474,438.082428 586.168030,435.994110 590.024597,432.526215 
	C595.164612,427.904175 600.518921,426.861511 606.855652,429.902039 
	C609.822571,431.325684 613.168091,431.944336 616.305054,433.034058 
	C619.405579,434.111176 619.843140,435.720184 617.214539,437.987518 
	C612.561890,442.000702 607.982605,446.098999 603.067261,450.386536 
z"/>
<path fill="#000000" opacity="1.000000" stroke="none" 
	d="
M567.039185,425.960358 
	C567.788879,425.602844 568.690430,425.406128 569.265137,424.863342 
	C576.369263,418.154633 583.535706,422.284698 590.630249,424.769379 
	C593.267029,425.692902 593.310669,427.583771 591.369019,429.349792 
	C586.672974,433.621033 581.396179,437.123322 576.062927,440.531372 
	C574.905029,441.271271 573.488098,441.567200 572.212097,441.044678 
	C567.594055,439.153625 563.012695,437.170227 558.453430,435.140930 
	C557.483215,434.709106 557.125244,433.698456 557.362793,432.045471 
	C560.745361,429.625366 564.261414,428.425415 567.039185,425.960358 
z"/>
<path fill="#000000" opacity="1.000000" stroke="none" 
	d="
M637.440430,420.133667 
	C633.507935,423.737976 629.812317,427.056519 626.089111,430.343842 
	C624.826843,431.458374 623.436462,432.285919 621.628235,432.210571 
	C619.394958,432.117554 604.210449,426.842926 602.187805,425.378418 
	C606.463745,417.413483 617.039246,412.447815 625.464722,414.423828 
	C628.687805,415.179688 631.933899,415.838654 635.151733,416.614929 
	C636.779480,417.007599 638.603760,417.380341 637.440430,420.133667 
z"/>
<path fill="#000000" opacity="1.000000" stroke="none" 
	d="
M316.720551,590.993652 
	C318.654327,594.637268 320.334229,597.970337 322.656586,602.578186 
	C322.848083,598.316040 322.883179,595.545532 323.131287,592.794373 
	C323.269440,591.262756 323.810974,589.758057 325.848572,589.964355 
	C327.516663,590.133301 328.045990,591.453308 328.061188,592.817566 
	C328.133270,599.289673 328.134766,605.763428 328.070770,612.235657 
	C328.057190,613.612000 327.483002,614.852966 325.865112,615.139526 
	C323.957428,615.477295 322.651794,614.659180 321.853729,612.961853 
	C320.255829,609.563416 318.675751,606.156494 316.144409,602.905579 
	C316.144409,605.971741 316.206299,609.039795 316.116058,612.103271 
	C316.076080,613.460144 315.670929,614.828613 313.979370,614.998657 
	C312.014862,615.196167 311.228180,613.827332 311.198151,612.236145 
	C311.076111,605.767151 310.871857,599.284851 311.164124,592.828613 
	C311.326294,589.245544 313.742828,589.064453 316.720551,590.993652 
z"/>
<path fill="#000000" opacity="1.000000" stroke="none" 
	d="
M859.037720,593.953857 
	C860.438232,596.951477 861.667969,599.605042 862.897644,602.258606 
	C863.190979,602.203369 863.484314,602.148132 863.777649,602.092834 
	C863.777649,599.020630 863.742126,595.947815 863.793518,592.876465 
	C863.817139,591.464355 864.270264,590.183044 865.932129,590.005615 
	C867.891907,589.796448 868.710999,591.170349 868.737610,592.748474 
	C868.846680,599.213013 868.844299,605.681030 868.758301,612.146118 
	C868.737427,613.718750 867.968262,615.019592 866.089600,615.185303 
	C864.362610,615.337708 863.222107,614.528320 862.526306,613.042419 
	C860.849060,609.460144 859.208923,605.860474 856.938904,600.933105 
	C856.938904,605.206421 857.042175,608.068298 856.900940,610.918030 
	C856.813354,612.685242 856.817627,614.979736 854.292542,614.990417 
	C851.702881,615.001404 851.815186,612.750916 851.796448,610.941467 
	C851.743286,605.796753 851.700317,600.650024 851.798096,595.506775 
	C851.836304,593.492676 850.950928,590.854675 853.809204,589.993286 
	C856.822693,589.085083 857.826538,591.488281 859.037720,593.953857 
z"/>
<path fill="#000000" opacity="1.000000" stroke="none" 
	d="
M481.208618,594.513428 
	C475.750122,596.945496 473.802795,602.044495 476.161835,606.794067 
	C478.498596,611.498779 482.779236,611.713501 486.074951,607.273743 
	C485.487488,605.913635 483.997955,606.515930 483.061981,605.905273 
	C481.901093,605.148010 481.363708,603.875000 482.200226,602.949524 
	C484.436646,600.475281 487.484192,601.769287 490.169067,601.851440 
	C492.519196,601.923401 492.312347,603.997986 492.169556,605.658386 
	C491.765533,610.356506 487.877899,614.513062 483.315857,615.214294 
	C478.238770,615.994812 473.986481,613.761047 471.852814,609.192688 
	C467.433655,599.730713 472.878204,589.323975 482.042938,589.715759 
	C482.375336,589.729919 482.712524,589.718384 483.039001,589.771240 
	C485.574280,590.181763 487.889404,591.020996 489.247589,593.398865 
	C489.721497,594.228577 489.351593,595.033203 488.608154,595.565735 
	C486.310455,597.211792 484.563141,595.040527 482.556061,594.653442 
	C482.230408,594.590637 481.901550,594.544189 481.208618,594.513428 
z"/>
<path fill="#000000" opacity="1.000000" stroke="none" 
	d="
M556.830811,613.054504 
	C554.184326,609.973511 553.576843,606.884705 555.338806,603.544128 
	C556.088318,602.123169 556.226685,600.797546 555.730164,599.252502 
	C554.070862,594.089355 557.989929,591.309387 560.765747,588.151672 
	C561.681335,587.110107 563.333801,587.131836 564.389648,588.235352 
	C565.869873,589.782227 567.221924,591.470520 568.474731,593.209351 
	C569.273987,594.318726 569.756348,595.739563 568.418701,596.782959 
	C567.268005,597.680603 565.927124,597.652710 564.816833,596.513062 
	C563.785889,595.454895 562.698547,593.801453 561.157959,595.315002 
	C559.358887,597.082458 561.330444,598.078674 562.384583,599.329346 
	C563.857849,601.077332 564.099060,602.934448 561.755127,604.328430 
	C560.236633,605.231567 558.939453,606.313049 559.678040,608.313477 
	C560.100769,609.458313 561.056519,610.402771 562.331848,610.212708 
	C564.442810,609.898010 564.743713,608.202637 564.648071,606.420349 
	C564.522095,604.073853 565.713074,602.993164 567.946655,603.100220 
	C570.464355,603.220764 570.733215,605.054626 570.657166,607.024414 
	C570.465515,611.984070 566.811951,614.855896 563.329590,617.058594 
	C560.409302,618.905762 559.386353,614.336121 556.830811,613.054504 
z"/>
<path fill="#000000" opacity="1.000000" stroke="none" 
	d="
M645.900635,593.169189 
	C649.376282,598.705444 649.403931,604.206055 647.108398,609.690002 
	C645.569458,613.366699 642.571655,615.330017 638.465820,615.285156 
	C634.509521,615.241943 631.943420,613.086121 630.365295,609.665466 
	C628.063477,604.676025 628.202271,599.625183 630.634705,594.753967 
	C633.593262,588.829224 639.742065,588.119019 645.900635,593.169189 
M641.666992,608.972839 
	C642.153442,608.116455 642.859131,607.314575 643.088379,606.394165 
	C644.076416,602.426147 644.380432,598.460022 640.958435,595.405457 
	C639.408813,594.022217 637.483521,594.152893 636.092102,595.789307 
	C633.070374,599.343262 633.156372,603.480286 634.798462,607.454041 
	C635.920349,610.169006 638.133606,611.625366 641.666992,608.972839 
z"/>
<path fill="#000000" opacity="1.000000" stroke="none" 
	d="
M816.671265,614.945618 
	C809.305786,610.704102 807.227478,599.431641 812.285645,593.115417 
	C815.843079,588.673218 822.529358,588.531616 826.272156,592.819214 
	C830.377808,597.522461 830.344727,607.709717 826.173645,612.376709 
	C823.705994,615.137695 820.542236,615.684204 816.671265,614.945618 
M821.991760,595.675537 
	C819.441101,593.680237 817.253052,594.370544 815.788025,596.918762 
	C813.768005,600.432617 813.656616,604.165405 815.655334,607.780457 
	C816.468811,609.251892 817.637024,610.590271 819.530090,610.375854 
	C821.264465,610.179504 822.602539,609.108398 823.300476,607.491394 
	C824.976929,603.607178 824.879761,599.807373 821.991760,595.675537 
z"/>
<path fill="#000000" opacity="1.000000" stroke="none" 
	d="
M427.945007,601.262146 
	C428.435272,598.559875 428.904419,596.279053 430.103058,594.231384 
	C433.565247,588.316956 441.763397,587.930420 445.409210,593.741516 
	C448.744202,599.057190 448.751678,604.845703 445.960938,610.387268 
	C444.292053,613.701233 441.338837,615.507996 437.387634,615.305054 
	C433.642578,615.112671 431.237213,613.133362 429.684052,609.882202 
	C428.444000,607.286438 427.862152,604.549438 427.945007,601.262146 
M438.979309,594.758423 
	C433.626892,595.386230 431.062927,602.277771 434.136658,607.768738 
	C434.985016,609.284302 436.112366,610.543945 437.966766,610.459229 
	C439.752075,610.377747 440.935272,609.215149 441.783447,607.672119 
	C443.819031,603.968933 442.874420,598.331482 438.979309,594.758423 
z"/>
<path fill="#000000" opacity="1.000000" stroke="none" 
	d="
M364.797058,614.231323 
	C357.328094,616.416687 352.443970,613.745850 351.020203,606.791809 
	C350.246216,603.011658 350.306427,599.133423 351.912140,595.511353 
	C353.437775,592.069885 356.039185,589.911133 359.955566,589.738525 
	C363.582123,589.578613 366.431854,591.019287 368.354340,594.122437 
	C371.321320,598.911682 371.583710,610.304626 364.797058,614.231323 
M359.789948,610.430420 
	C364.046631,610.454895 364.824036,607.140320 365.437775,604.101990 
	C366.084015,600.902954 365.369110,597.741699 362.755341,595.524231 
	C360.408722,593.533325 358.442566,594.742493 356.947479,596.901550 
	C354.110352,600.998718 355.029053,606.403320 359.789948,610.430420 
z"/>
<path fill="#000000" opacity="1.000000" stroke="none" 
	d="
M274.211975,590.256714 
	C278.679016,589.729431 277.832550,592.884583 278.088959,595.175049 
	C278.325348,597.286987 277.844879,599.860413 281.186646,599.692261 
	C284.271332,599.536987 283.507141,597.050476 283.671021,595.185791 
	C283.758179,594.194275 283.714355,593.189819 283.826569,592.202209 
	C283.973022,590.913452 284.615021,590.017639 286.043793,590.015442 
	C287.502075,590.013184 288.182617,590.969055 288.192688,592.239380 
	C288.246582,599.049561 288.242371,605.860474 288.199188,612.670837 
	C288.191223,613.926697 287.605652,614.959167 286.148560,615.000183 
	C284.406586,615.049255 283.898682,613.825867 283.784973,612.398010 
	C283.666382,610.909302 283.679016,609.410278 283.630432,607.915833 
	C283.570099,606.062927 282.590332,605.233337 280.760925,605.296509 
	C279.154449,605.351929 278.321838,606.192139 278.207458,607.754395 
	C278.086304,609.409363 278.106995,611.080566 277.887024,612.720703 
	C277.692780,614.168884 276.894287,615.194519 275.225983,615.059387 
	C273.812714,614.944946 273.070587,613.935303 273.082062,612.722900 
	C273.152191,605.307678 271.884369,597.840942 274.211975,590.256714 
z"/>
<path fill="#000000" opacity="1.000000" stroke="none" 
	d="
M721.818665,607.342224 
	C720.362915,613.225159 717.775024,615.556824 713.455750,615.260803 
	C709.319275,614.977417 706.458496,611.786072 706.155090,606.584595 
	C705.912903,602.432800 706.000305,598.253540 706.130859,594.092407 
	C706.185425,592.351807 706.113586,590.011230 708.696716,589.989014 
	C711.303101,589.966736 711.211426,592.200806 711.241211,594.025452 
	C711.306519,598.024231 711.286560,602.024414 711.298645,606.023987 
	C711.304565,607.982727 711.672363,610.030823 713.960510,610.132751 
	C716.389343,610.241089 716.679810,608.102173 716.709229,606.196594 
	C716.763123,602.697693 716.603516,599.190247 716.795410,595.700806 
	C716.911194,593.595825 715.737488,590.146057 719.130798,590.105713 
	C722.737366,590.062805 721.783813,593.656799 721.895447,595.914795 
	C722.076111,599.570312 721.899109,603.243469 721.818665,607.342224 
z"/>
<path fill="#000000" opacity="1.000000" stroke="none" 
	d="
M245.247894,590.176880 
	C246.508667,590.790100 247.460541,591.157776 248.245865,591.747314 
	C249.308334,592.544922 250.487793,593.512512 249.418945,595.025269 
	C248.548523,596.257263 247.286133,596.266113 245.843872,595.910889 
	C237.946640,593.965515 234.433655,597.524292 236.273071,605.520569 
	C237.210587,609.596252 240.134796,611.255859 244.058182,609.919189 
	C244.996460,609.599487 245.885941,609.074890 246.845001,608.893127 
	C248.096985,608.655762 249.216675,609.181580 249.708725,610.379517 
	C250.152313,611.459351 249.336090,612.227234 248.623291,612.942017 
	C245.256836,616.317810 238.164322,616.051392 234.512054,612.408508 
	C230.581879,608.488403 229.608856,601.159912 232.283463,595.623291 
	C234.516983,590.999695 238.204956,589.360229 245.247894,590.176880 
z"/>
<path fill="#000000" opacity="1.000000" stroke="none" 
	d="
M207.205261,614.576538 
	C195.066925,616.614075 194.814117,616.399170 194.810013,604.626221 
	C194.809143,602.136597 194.787689,599.646790 194.804703,597.157288 
	C194.851837,590.260376 199.624710,587.236145 206.158997,589.931641 
	C207.161270,590.345154 207.888733,590.950500 207.881760,592.088379 
	C207.873001,593.518860 206.949951,594.044067 205.654999,594.255371 
	C204.059006,594.515808 202.290863,593.864685 200.886124,595.095337 
	C200.672256,595.282715 200.644287,595.682251 200.387527,596.361328 
	C205.261108,598.247681 209.515442,600.349243 200.809555,603.343750 
	C199.364868,603.840576 200.023239,606.704346 200.256927,608.495422 
	C200.512543,610.454285 202.071274,610.536682 203.622681,610.673340 
	C205.810379,610.866028 208.867386,610.235168 207.205261,614.576538 
z"/>
<path fill="#000000" opacity="1.000000" stroke="none" 
	d="
M600.116821,606.752808 
	C598.164978,604.510681 596.119019,602.734863 594.664917,600.562866 
	C592.899048,597.924988 592.810059,594.869507 594.527588,592.093506 
	C595.914185,589.852356 598.245422,589.536133 600.688416,589.768433 
	C603.303162,590.017151 604.945801,591.445374 605.714111,593.906067 
	C606.078918,595.074646 606.160339,596.232727 604.836243,596.913940 
	C602.339355,598.198669 601.568726,595.226929 599.452698,594.699951 
	C597.353149,597.034668 599.375427,598.488953 600.726379,599.911194 
	C602.780029,602.073242 605.243896,603.962341 605.915222,607.050232 
	C606.720398,610.754028 605.571533,613.836975 601.790771,614.977783 
	C598.573608,615.948425 595.409302,615.422607 593.854370,611.808167 
	C593.216553,610.325439 592.410645,608.471802 594.231934,607.310608 
	C596.046143,606.153809 597.345703,607.228027 598.158020,608.964294 
	C598.453796,609.596436 598.832153,610.088318 599.681824,610.005371 
	C601.065308,609.294861 600.661377,608.166138 600.116821,606.752808 
z"/>
<path fill="#000000" opacity="1.000000" stroke="none" 
	d="
M650.876099,408.911865 
	C644.618652,416.626953 637.114624,417.164795 628.779114,413.896393 
	C626.506104,413.005127 623.820679,413.260284 620.839844,410.617218 
	C632.048706,407.938049 642.501709,405.817780 653.025208,404.180695 
	C654.104614,406.851837 652.088562,407.490356 650.876099,408.911865 
z"/>
<path fill="#000000" opacity="1.000000" stroke="none" 
	d="
M588.789917,416.632202 
	C596.947815,415.052399 604.692932,413.543335 613.014038,411.922058 
	C606.862854,423.914764 591.434265,427.044952 581.389832,418.840668 
	C583.505127,417.144257 586.099365,417.371796 588.789917,416.632202 
z"/>
<path fill="#000000" opacity="1.000000" stroke="none" 
	d="
M517.144775,596.793945 
	C516.358521,594.445557 515.010803,592.550354 516.193726,590.063477 
	C522.241028,589.029663 520.312134,595.822388 523.539612,597.607788 
	C525.310425,596.005310 525.365173,593.487366 526.580872,591.572449 
	C527.392578,590.293884 528.345459,589.552063 529.835693,590.047607 
	C531.578369,590.627136 531.344055,592.113770 530.929626,593.357971 
	C528.794373,599.767334 525.648254,605.886292 525.684692,612.899841 
	C525.690796,614.091919 524.786316,615.112854 523.399719,615.070923 
	C521.463562,615.012268 520.831116,613.562256 520.932190,611.985352 
	C521.275024,606.636963 518.902161,601.995361 517.144775,596.793945 
z"/>
<path fill="#000000" opacity="1.000000" stroke="none" 
	d="
M567.212280,425.689362 
	C564.261414,428.425415 560.745361,429.625366 557.350342,431.673035 
	C550.937561,433.769714 546.625305,429.753967 541.719849,427.147064 
	C550.910522,423.686096 560.365112,422.259735 569.842651,420.716400 
	C570.715088,423.585663 568.177856,423.983643 567.212280,425.689362 
z"/>
<path fill="#000000" opacity="1.000000" stroke="none" 
	d="
M398.179565,606.589539 
	C398.005768,609.929688 399.664612,610.746765 402.211731,610.739441 
	C403.826385,610.734802 405.286255,611.212646 405.063019,613.273438 
	C404.878510,614.976990 403.486084,615.107849 402.121063,615.302490 
	C394.111847,616.444458 392.899933,615.395996 392.914825,607.175537 
	C392.923218,602.536804 392.904602,597.896729 393.016968,593.260132 
	C393.057953,591.569702 393.406067,589.764465 395.745178,589.942871 
	C397.694397,590.091431 398.025269,591.708191 398.061798,593.220642 
	C398.165710,597.526245 398.142273,601.834900 398.179565,606.589539 
z"/>
<path fill="#000000" opacity="1.000000" stroke="none" 
	d="
M676.359009,608.322876 
	C677.173340,611.174622 679.324646,610.485840 681.018494,610.769287 
	C682.351379,610.992310 683.142029,611.608459 683.109070,613.044067 
	C683.075806,614.494446 682.151611,614.941956 680.896851,615.255554 
	C673.682922,617.059082 671.042236,615.061951 671.045593,607.697083 
	C671.047729,603.036194 671.007385,598.373047 671.144409,593.715576 
	C671.190979,592.133362 671.193726,590.025818 673.506592,589.981628 
	C676.083435,589.932434 676.160339,592.060059 676.191772,593.916992 
	C676.270691,598.577209 676.272095,603.238770 676.359009,608.322876 
z"/>
<path fill="#000000" opacity="1.000000" stroke="none" 
	d="
M749.261902,596.906006 
	C749.155640,595.676880 748.864929,594.863159 747.964844,594.608704 
	C746.234619,594.119690 743.929626,594.035156 744.605530,591.394836 
	C745.230408,588.954102 747.563904,589.780273 749.256775,589.716370 
	C751.738037,589.622498 754.231506,589.704407 756.713440,589.833862 
	C757.959412,589.898926 758.952576,590.512817 759.001526,591.961121 
	C759.039795,593.093445 758.475464,593.997742 757.380432,594.126892 
	C753.993225,594.526367 754.306946,596.985962 754.303284,599.325134 
	C754.296814,603.472046 754.308594,607.619446 754.244263,611.765625 
	C754.217041,613.518372 753.877686,615.245239 751.536804,615.053040 
	C749.436035,614.880615 749.563049,613.177429 749.533630,611.681580 
	C749.439331,606.876099 749.361023,602.070312 749.261902,596.906006 
z"/>
<path fill="#000000" opacity="1.000000" stroke="none" 
	d="
M163.208923,589.688232 
	C164.998672,589.688049 166.331863,589.652832 167.661819,589.703308 
	C169.294189,589.765198 171.303802,589.449036 171.883270,591.491455 
	C172.539337,593.803772 170.550491,594.036743 168.966125,594.615784 
	C167.208405,595.258118 167.342499,596.944458 167.333694,598.440796 
	C167.310211,602.435974 167.375900,606.432739 167.282135,610.426025 
	C167.237823,612.312927 167.797073,614.960022 164.877777,615.047791 
	C161.687042,615.143799 162.619858,612.420898 162.585648,610.588928 
	C162.526611,607.427490 162.714157,604.259155 162.588974,601.101990 
	C162.472427,598.162598 163.674011,594.401855 158.700211,593.980591 
	C157.853287,593.908813 157.552063,592.863647 157.555557,591.984009 
	C157.560104,590.840820 158.149353,590.051025 159.267090,589.885803 
	C160.412918,589.716309 161.588409,589.747620 163.208923,589.688232 
z"/>
<path fill="#000000" opacity="1.000000" stroke="none" 
	d="
M782.090393,613.403076 
	C781.903992,606.696167 781.826294,600.418457 781.828552,594.140808 
	C781.829224,592.358398 781.638000,590.143555 784.206909,589.997925 
	C786.738892,589.854370 787.009766,591.992371 787.036438,593.812561 
	C787.121277,599.595154 787.226685,605.387268 786.977234,611.160767 
	C786.854919,613.992981 786.076233,616.989441 782.090393,613.403076 
z"/>
<path fill="#000000" opacity="1.000000" stroke="none" 
	d="
M642.405273,515.466003 
	C639.217712,516.188599 635.860718,517.712280 634.124390,514.254944 
	C633.155396,512.325439 632.903625,509.383484 634.667053,507.637817 
	C636.567932,505.756134 639.804016,505.853760 641.690979,507.027008 
	C644.701721,508.898956 643.186951,512.304688 642.405273,515.466003 
z"/>
<path fill="#000000" opacity="1.000000" stroke="none" 
	d="
M625.093018,516.259583 
	C619.772095,514.798767 621.269165,510.750519 622.276611,508.199036 
	C623.401245,505.350708 627.130981,506.100647 629.268127,507.075989 
	C632.478577,508.541046 631.382324,511.933075 630.656128,514.481079 
	C629.959473,516.925293 627.424438,516.109192 625.093018,516.259583 
z"/>
<path fill="#000000" opacity="1.000000" stroke="none" 
	d="
M637.188721,518.952942 
	C642.410889,518.270874 643.720520,520.671936 643.276428,525.018494 
	C642.810364,529.579651 639.462708,528.132507 636.921509,528.273071 
	C634.943298,528.382507 633.797302,527.244629 633.843140,525.249084 
	C633.899841,522.777527 632.775085,519.676147 637.188721,518.952942 
z"/>
<path fill="#000000" opacity="1.000000" stroke="none" 
	d="
M623.282776,527.980225 
	C620.656555,522.432068 621.237122,519.477600 624.727234,519.054382 
	C626.801575,518.802734 629.315186,518.365967 630.563599,520.645508 
	C631.616943,522.568970 631.718750,525.073608 630.568054,526.875427 
	C628.952942,529.404236 626.093872,528.123962 623.282776,527.980225 
z"/>
</svg>